<svg version="1.2" xmlns="http://www.w3.org/2000/svg" viewBox="0 0 683 128" width="683" height="128">
	<title>New Project</title>
	<style>
		.s0 { fill: #8a4fff } 
		.s1 { fill: #e154fa } 
	</style>
	<g id="Folder 1">
		<path id="WP" class="s0" aria-label="WP"  d="m165.2 13l-24.5 74.4-24-74.4h-22.5l-24.7 73.8-23.7-73.8h-25.2l34.5 105h25.9l23.9-71.1 23.1 71.1h26.1l34.3-105zm-3.9 0l-24.5 74.4-24-74.4h-22.5l-24.7 73.8-23.7-73.8h-25.2l34.5 105h25.9l23.9-71.1 23.1 71.1h26.1l34.3-105zm90.2 0h-45.4v105h24.3v-29h21.1c28.1 0 45.6-14.5 45.6-37.9 0-23.6-17.5-38.1-45.6-38.1zm-1.3 56.3h-19.8v-36.5h19.8c14.8 0 22.3 6.8 22.3 18.3 0 11.4-7.5 18.2-22.3 18.2zm-2.6-56.3h-45.5v105h24.3v-29h21.2c28 0 45.6-14.5 45.6-37.9 0-23.6-17.6-38.1-45.6-38.1zm-1.4 56.3h-19.8v-36.5h19.8c14.9 0 22.4 6.8 22.4 18.3 0 11.4-7.5 18.2-22.4 18.2z"/>
		<path id="Ibrar" class="s1" aria-label="Ibrar"  d="m313.7 120h24.3v-105h-24.3zm95.3-81.9c-10.1 0-18.4 3.2-24.4 9.8v-39.2h-23.3v111.3h22.3v-9.3c5.9 7.1 14.5 10.5 25.4 10.5 22.6 0 40.1-16.2 40.1-41.5 0-25.4-17.5-41.6-40.1-41.6zm-4.1 63.9c-11.7 0-20.5-8.4-20.5-22.3 0-14 8.8-22.4 20.5-22.4 11.7 0 20.6 8.4 20.6 22.4 0 13.9-8.9 22.3-20.6 22.3zm82.2-52v-10.7h-22.3v80.7h23.3v-38.1c0-15.4 8.6-22.5 21.5-22.5 1.8 0 3.3 0.2 5.3 0.3v-21.6c-12.5 0-22.1 4.1-27.8 11.9zm73.8-11.9c-12.9 0-25.9 3.5-34.8 9.8l8.4 16.3c5.9-4.6 14.7-7.5 23.3-7.5 12.5 0 18.5 5.9 18.5 15.9h-18.5c-24.7 0-34.7 9.9-34.7 24.2 0 13.9 11.3 24.4 30.2 24.4 11.8 0 20.2-3.9 24.5-11.2v10h22v-46c0-24.5-14.3-35.9-38.9-35.9zm-1.8 67.4c-8.3 0-13.2-3.9-13.2-9.8 0-5.4 3.4-9.4 14.4-9.4h16v8.2c-2.7 7.4-9.4 11-17.2 11zm84.2-55.5v-10.7h-22.4v80.7h23.4v-38.1c0-15.4 8.5-22.5 21.5-22.5 1.7 0 3.2 0.2 5.2 0.3v-21.6c-12.5 0-22 4.1-27.7 11.9z"/>
	</g>
</svg>